<?xml version="1.0" standalone="no"?>
<!DOCTYPE svg PUBLIC "-//W3C//DTD SVG 20010904//EN"
 "http://www.w3.org/TR/2001/REC-SVG-20010904/DTD/svg10.dtd">
<svg version="1.0" xmlns="http://www.w3.org/2000/svg"
 width="250.000000pt" height="250.000000pt" viewBox="0 0 250.000000 250.000000"
 preserveAspectRatio="xMidYMid meet">

<g transform="translate(0.000000,250.000000) scale(0.100000,-0.100000)"
fill="#000000" stroke="none">
<path d="M0 1250 l0 -1250 1250 0 1250 0 0 1250 0 1250 -1250 0 -1250 0 0
-1250z m1395 861 c93 -116 113 -146 104 -158 -7 -7 -131 -109 -277 -226 -146
-117 -276 -222 -291 -233 l-25 -22 26 -33 c14 -19 41 -51 59 -72 l34 -39 278
222 c153 122 282 220 287 218 9 -3 240 -290 240 -298 0 -4 -39 -37 -87 -75
-294 -232 -463 -370 -463 -377 0 -11 108 -148 116 -148 3 0 123 93 266 208
143 114 279 222 303 240 l44 33 78 -97 c145 -180 163 -204 163 -208 0 -12
-1010 -808 -1020 -804 -5 2 -113 134 -242 293 -548 681 -615 763 -670 831 -32
39 -58 76 -58 82 0 13 54 57 515 427 198 159 387 311 420 337 33 27 65 47 72
46 7 -2 64 -68 128 -147z"/>
</g>
</svg>
